<svg width="50" height="50" viewBox="0 0 50 50" fill="none" xmlns="http://www.w3.org/2000/svg">
<path d="M50 25C50 30.4037 48.2492 35.6619 45.0098 39.987C41.7704 44.312 37.2168 47.4711 32.0312 48.9909C26.8457 50.5107 21.3072 50.3094 16.2457 48.4171C11.1841 46.5249 6.87192 43.0436 3.95505 38.4948C1.03818 33.946 -0.326322 28.5745 0.0659643 23.1851C0.458251 17.7957 2.5862 12.6784 6.13104 8.59993C9.67587 4.52145 14.4468 1.70131 19.729 0.561991C25.0112 -0.577329 30.5204 0.0255049 35.4312 2.28018L30.1309 13.8246C27.7154 12.7156 25.0055 12.419 22.4073 12.9795C19.8091 13.5399 17.4624 14.927 15.7188 16.9331C13.9751 18.9393 12.9284 21.4563 12.7355 24.1073C12.5425 26.7582 13.2137 29.4003 14.6484 31.6378C16.0832 33.8753 18.2043 35.5877 20.6939 36.5184C23.1836 37.4491 25.9078 37.5482 28.4585 36.8006C31.0092 36.0531 33.249 34.4992 34.8424 32.3718C36.4358 30.2444 37.297 27.658 37.297 25H50Z" fill="white"/>
</svg>
