<svg width="35" height="36" viewBox="0 0 35 36" fill="none" xmlns="http://www.w3.org/2000/svg">
<path d="M17.9999 1.50002C18.2419 1.50002 18.4821 1.50002 18.7204 1.50002C16.3652 3.68848 14.8513 6.63307 14.442 9.82192C14.0326 13.0108 14.7536 16.2423 16.4796 18.9547C18.2057 21.6671 20.8276 23.6889 23.8897 24.6687C26.9518 25.6485 30.2604 25.5243 33.2404 24.3177C32.0941 27.0759 30.2205 29.4712 27.8196 31.2482C25.4187 33.0251 22.5804 34.1169 19.6076 34.4072C16.6348 34.6975 13.6389 34.1754 10.9396 32.8966C8.24021 31.6177 5.93863 29.6301 4.28034 27.1458C2.62204 24.6614 1.66924 21.7735 1.52355 18.7901C1.37786 15.8067 2.04476 12.8397 3.45311 10.2056C4.86145 7.57153 6.95842 5.36913 9.52032 3.83336C12.0822 2.2976 15.013 1.48607 17.9999 1.48535V1.50002Z" stroke="#1FDDFF" stroke-width="2.75" stroke-linecap="round" stroke-linejoin="round"/>
</svg>
